<?xml version="1.0" standalone="no"?><!DOCTYPE svg PUBLIC "-//W3C//DTD SVG 20010904//EN" "http://www.w3.org/TR/2001/REC-SVG-20010904/DTD/svg10.dtd"><svg xmlns="http://www.w3.org/2000/svg" version="1.0" width="177" height="73" viewBox="0 0 1600.000000 1600.000000" preserveAspectRatio="xMidYMid meet">

<g transform="translate(0.000000,1600.000000) scale(0.100000,-0.100000)" fill="#ecc8c5" stroke="none">
<path d="M0 8000 l0 -8000 8000 0 8000 0 0 8000 0 8000 -8000 0 -8000 0 0 -8000z m7998 2266 c15 -7 125 -46 245 -86 119 -40 217 -76 217 -79 0 -4 11 -8 26 -9 14 -1 35 -7 47 -14 12 -7 27 -13 32 -13 27 -3 106 -29 111 -36 3 -5 16 -9 29 -9 13 0 30 -7 39 -15 8 -8 23 -12 33 -9 15 5 16 4 3 -6 -13 -10 -12 -11 6 -7 13 3 21 -1 21 -9 0 -7 -4 -11 -9 -8 -13 8 -22 -26 -10 -38 7 -7 14 -4 21 11 7 12 16 21 22 21 6 0 6 -4 -1 -12 -5 -7 -19 -24 -30 -38 -12 -16 -18 -18 -14 -7 5 13 2 16 -11 11 -15 -6 -16 -3 -10 24 5 24 3 32 -8 32 -8 0 -19 10 -25 23 -8 17 -11 18 -11 5 -1 -9 4 -20 9 -23 6 -3 10 -14 10 -23 0 -15 -2 -15 -10 -2 -10 16 -10 16 -14 -31 -1 -7 9 -16 22 -20 16 -6 21 -5 16 3 -4 7 -3 8 4 4 17 -10 15 -33 -3 -33 -8 0 -12 4 -10 8 3 3 -5 10 -18 14 -26 8 -27 8 -50 0 -14 -6 -16 -3 -10 11 4 11 3 15 -4 11 -6 -4 -13 -4 -16 0 -2 5 -2 3 -1 -4 3 -14 -31 -27 -47 -18 -6 4 -8 13 -5 21 3 7 0 16 -6 20 -6 4 -8 3 -5 -3 11 -18 -26 -51 -48 -43 -17 6 -16 7 8 14 15 3 27 13 27 21 0 8 -3 14 -7 13 -5 0 -16 2 -26 7 -14 6 -15 10 -6 21 9 11 9 14 0 14 -6 0 -14 -6 -17 -14 -6 -16 -44 -17 -44 -1 0 5 -6 1 -12 -10 -12 -19 -12 -19 -19 5 -7 24 -7 24 -8 3 -1 -28 -25 -30 -77 -8 -20 8 -39 13 -43 11 -4 -3 -13 -1 -21 5 -10 6 -11 9 -2 9 6 0 12 7 12 15 0 19 -19 19 -44 0 -10 -8 -23 -12 -27 -9 -5 3 -9 -2 -9 -10 0 -8 5 -18 10 -21 6 -3 10 -14 10 -23 0 -15 -2 -15 -11 -2 -9 12 -10 12 -7 1 7 -24 28 -25 28 -2 0 30 33 29 35 -1 1 -9 -1 -15 -5 -13 -6 3 -40 -30 -40 -38 0 -2 7 -4 15 -4 8 0 12 4 9 9 -9 14 4 9 42 -17 40 -27 54 -31 54 -15 0 6 -9 10 -20 10 -11 0 -20 5 -20 10 0 6 6 10 13 10 8 0 7 3 -3 10 -12 7 -11 10 5 16 11 5 20 3 23 -4 2 -7 12 -12 23 -12 24 0 25 -20 2 -21 -15 0 -15 -2 2 -8 11 -5 23 -7 27 -4 9 5 29 -33 21 -41 -3 -3 1 -6 11 -6 15 0 16 -2 2 -15 -8 -8 -20 -15 -26 -15 -6 0 -10 -6 -7 -12 2 -7 16 -12 30 -10 14 1 28 -2 32 -8 4 -6 -5 -10 -21 -10 -15 0 -24 -3 -21 -7 9 -9 -52 -35 -64 -27 -5 3 -9 -6 -9 -20 0 -14 -5 -26 -11 -26 -6 0 -8 7 -5 16 3 9 2 12 -5 9 -6 -4 -8 -13 -5 -20 6 -16 -21 -75 -35 -75 -5 0 -9 5 -9 11 0 5 4 8 9 5 5 -4 7 4 3 16 -3 14 -2 19 6 14 7 -4 12 -3 12 3 0 16 -18 22 -23 9 -4 -8 -6 -7 -6 4 -1 9 5 19 12 22 6 3 1 3 -13 0 l-25 -5 25 20 c14 11 21 21 15 21 -13 0 -75 -58 -75 -71 0 -6 -4 -8 -10 -4 -5 3 -7 13 -4 23 5 14 4 15 -5 2 -15 -20 -14 -57 2 -64 6 -3 1 -3 -13 0 -35 9 -48 23 -31 33 9 6 11 15 6 27 -5 11 -7 22 -7 27 1 4 -2 7 -7 7 -10 0 -25 -30 -22 -44 1 -5 -7 -6 -18 -3 -14 3 -18 1 -14 -9 4 -10 10 -11 25 -3 11 6 22 8 25 5 3 -3 -6 -10 -20 -15 -14 -6 -30 -18 -36 -28 -6 -10 -11 -12 -11 -5 0 20 -27 13 -33 -9 -3 -12 -10 -18 -16 -14 -6 3 -11 -2 -11 -13 0 -14 -8 -21 -30 -24 -27 -4 -31 -1 -39 26 -5 17 -10 25 -10 17 -1 -8 -9 -20 -18 -27 -16 -12 -16 -12 5 -7 18 4 22 1 22 -17 0 -18 -3 -20 -14 -11 -11 9 -15 6 -20 -13 -4 -17 -11 -23 -21 -20 -9 4 -15 0 -15 -10 0 -9 -4 -16 -10 -16 -5 0 -10 7 -10 15 0 8 -6 15 -14 15 -8 0 -16 3 -19 8 -2 4 -3 2 -1 -3 1 -6 -4 -19 -12 -30 -8 -10 -14 -13 -14 -7 0 7 -7 12 -15 12 -20 0 -19 -12 4 -32 18 -15 19 -15 24 1 7 28 34 22 29 -7 -3 -17 -7 -20 -13 -10 -6 9 -9 4 -10 -17 -1 -18 -3 -23 -6 -12 -4 14 -8 16 -19 6 -7 -6 -21 -9 -29 -5 -9 3 -15 0 -15 -8 0 -8 -6 -17 -12 -20 -7 -2 -4 -4 7 -3 11 2 26 6 33 10 6 5 12 4 12 -2 0 -6 8 -8 18 -5 10 4 13 3 6 -3 -6 -4 -14 -18 -18 -30 -9 -28 -23 -29 -31 -3 -8 25 -45 27 -46 3 0 -14 -2 -13 -9 5 -5 12 -14 22 -20 22 -6 0 -8 5 -5 10 3 6 2 10 -4 10 -18 0 -23 -20 -6 -26 8 -4 14 -13 13 -22 -2 -11 7 -18 27 -23 26 -5 27 -7 11 -14 -11 -5 -26 -3 -38 4 -17 10 -18 9 -13 -16 6 -25 5 -26 -7 -11 -10 11 -19 14 -28 8 -12 -7 -11 -10 4 -16 14 -5 15 -9 4 -15 -10 -7 -8 -9 7 -10 15 0 12 -3 -8 -9 -20 -6 -39 -4 -60 5 -18 7 -81 30 -142 49 -60 19 -189 63 -285 97 -96 34 -239 83 -317 109 -78 27 -155 56 -172 65 -17 8 -31 14 -31 11 0 -2 -24 5 -52 15 -29 11 -109 38 -178 60 -69 22 -131 43 -139 45 -8 3 -11 8 -5 13 8 7 732 262 1139 401 83 28 164 56 180 62 182 65 362 127 368 127 4 1 20 -5 35 -13z m262 -296 c0 -5 -2 -10 -4 -10 -3 0 -8 5 -11 10 -3 6 -1 10 4 10 6 0 11 -4 11 -10z m490 -50 c0 -5 -7 -10 -15 -10 -8 0 -15 5 -15 10 0 6 7 10 15 10 8 0 15 -4 15 -10z m-436 -41 c-3 -5 -10 -7 -15 -3 -5 3 -7 10 -3 15 3 5 10 7 15 3 5 -3 7 -10 3 -15z m407 -6 c11 -15 11 -16 0 -6 -11 9 -17 8 -28 -3 -15 -15 -33 -11 -33 7 0 6 4 8 9 4 5 -3 12 -1 16 5 9 15 21 12 36 -7z m462 -20 c-7 -2 -19 -2 -25 0 -7 3 -2 5 12 5 14 0 19 -2 13 -5z m-660 -23 c3 -11 1 -18 -4 -14 -5 3 -9 12 -9 20 0 20 7 17 13 -6z m610 13 c-7 -2 -21 -2 -30 0 -10 3 -4 5 12 5 17 0 24 -2 18 -5z m-66 -9 c-3 -3 -12 -4 -19 -1 -8 3 -5 6 6 6 11 1 17 -2 13 -5z m-110 -10 c-3 -3 -12 -4 -19 -1 -8 3 -5 6 6 6 11 1 17 -2 13 -5z m-50 -10 c-3 -3 -12 -4 -19 -1 -8 3 -5 6 6 6 11 1 17 -2 13 -5z m-70 -10 c-3 -3 -12 -4 -19 -1 -8 3 -5 6 6 6 11 1 17 -2 13 -5z m-94 -11 c-7 -2 -19 -2 -25 0 -7 3 -2 5 12 5 14 0 19 -2 13 -5z m-283 -13 c0 -5 -5 -10 -11 -10 -5 0 -7 5 -4 10 3 6 8 10 11 10 2 0 4 -4 4 -10z m233 3 c-7 -2 -21 -2 -30 0 -10 3 -4 5 12 5 17 0 24 -2 18 -5z m-118 -14 c-4 -6 -9 -8 -12 -5 -3 3 -14 -5 -24 -17 -10 -12 -18 -16 -19 -9 0 6 5 12 10 12 6 0 10 7 10 15 0 8 9 15 21 15 12 0 17 -4 14 -11z m-45 -3 c0 -9 -30 -14 -35 -6 -4 6 3 10 14 10 12 0 21 -2 21 -4z m-30 -51 c0 -8 -2 -15 -4 -15 -2 0 -6 7 -10 15 -3 8 -1 15 4 15 6 0 10 -7 10 -15z m-27 -22 c-7 -2 -19 -2 -25 0 -7 3 -2 5 12 5 14 0 19 -2 13 -5z m-66 -25 c-3 -8 -6 -5 -6 6 -1 11 2 17 5 13 3 -3 4 -12 1 -19z m-237 -19 c0 -6 -4 -7 -10 -4 -5 3 -10 11 -10 16 0 6 5 7 10 4 6 -3 10 -11 10 -16z m116 -26 c-4 -4 -11 -1 -16 7 -16 25 -11 35 7 17 9 -9 13 -20 9 -24z m-156 -39 c0 -8 -5 -12 -10 -9 -6 4 -8 11 -5 16 9 14 15 11 15 -7z m127 -26 c-3 -8 -6 -5 -6 6 -1 11 2 17 5 13 3 -3 4 -12 1 -19z m1080 -381 c-1 -73 -3 -10 -3 138 0 149 2 208 3 132 2 -76 2 -198 0 -270z m-1280 331 c-3 -7 -5 -2 -5 12 0 14 2 19 5 13 2 -7 2 -19 0 -25z m20 0 c-3 -8 -6 -5 -6 6 -1 11 2 17 5 13 3 -3 4 -12 1 -19z m83 -18 c0 -5 -5 -10 -11 -10 -5 0 -7 5 -4 10 3 6 8 10 11 10 2 0 4 -4 4 -10z m-160 -21 c0 -14 -17 -10 -23 5 -4 10 -1 13 9 9 7 -3 14 -9 14 -14z m-50 -9 c0 -5 -2 -10 -4 -10 -3 0 -8 5 -11 10 -3 6 -1 10 4 10 6 0 11 -4 11 -10z m156 -95 c-11 -8 -25 -15 -30 -15 -6 1 0 7 14 15 32 19 40 18 16 0z m-221 -4 c3 -6 -3 -9 -14 -8 -11 0 -17 5 -15 9 7 11 22 10 29 -1z m-24 -44 c-10 -9 -11 -8 -5 6 3 10 9 15 12 12 3 -3 0 -11 -7 -18z m-871 -98 c102 -38 232 -87 290 -108 58 -22 195 -72 305 -113 l200 -74 3 -527 c1 -290 -1 -527 -6 -527 -4 0 -78 27 -163 61 -84 33 -176 69 -204 79 -50 17 -272 103 -310 120 -22 9 -113 45 -217 84 -36 14 -71 26 -76 26 -6 0 -18 7 -26 16 -14 14 -16 76 -16 531 0 487 1 515 18 508 9 -4 100 -39 202 -76z m1000 56 c0 -8 -2 -15 -4 -15 -2 0 -6 7 -10 15 -3 8 -1 15 4 15 6 0 10 -7 10 -15z m1170 -503 l0 -519 -352 -136 c-194 -75 -411 -159 -483 -187 -71 -29 -137 -52 -145 -53 -13 -2 -16 31 -21 218 -4 121 -7 360 -8 530 l-1 310 488 177 c268 97 495 177 505 177 16 1 17 -30 17 -517z m-1337 495 c4 3 7 -1 7 -9 0 -11 -6 -14 -20 -11 -11 3 -20 12 -20 20 0 12 3 13 13 4 8 -6 17 -8 20 -4z m-53 -7 c0 -5 -5 -10 -11 -10 -5 0 -7 5 -4 10 3 6 8 10 11 10 2 0 4 -4 4 -10z m95 -1 c11 -16 1 -19 -13 -3 -7 8 -8 14 -3 14 5 0 13 -5 16 -11z m-152 -15 c-5 -13 -2 -15 17 -9 15 5 20 4 16 -4 -9 -14 -33 -14 -41 -1 -3 6 -3 15 0 20 10 16 15 12 8 -6z m67 -38 c0 -7 -7 -19 -15 -26 -12 -10 -15 -9 -15 5 0 11 -5 15 -16 11 -9 -3 -12 -2 -9 5 4 5 16 7 27 3 14 -4 18 -2 14 5 -4 6 -2 11 3 11 6 0 11 -6 11 -14z m-70 -6 c0 -13 -11 -13 -30 0 -12 8 -11 10 8 10 12 0 22 -4 22 -10z m135 -9 c3 -5 0 -13 -6 -17 -7 -4 -9 -3 -5 4 3 5 0 13 -6 15 -9 4 -10 6 -1 6 6 1 14 -3 18 -8z m205 -1986 l0 -365 -80 0 -80 0 0 365 0 365 80 0 80 0 0 -365z m2050 234 l0 -130 32 23 c26 18 46 23 94 23 53 0 69 -4 105 -30 26 -18 53 -50 68 -80 23 -43 26 -61 25 -145 -1 -103 -14 -144 -61 -200 -32 -39 -95 -69 -141 -70 -37 0 -102 25 -114 43 -5 9 -12 6 -23 -10 -14 -20 -25 -23 -81 -23 l-64 0 0 365 0 365 80 0 80 0 0 -131z m-4036 112 c3 -5 3 -36 0 -70 l-7 -61 -93 0 -94 0 0 -290 0 -290 -90 0 -90 0 0 290 0 289 -97 3 -98 3 -3 68 -3 67 285 0 c157 0 287 -4 290 -9z m2774 -143 l3 -148 134 0 134 0 3 148 3 147 85 0 85 0 3 -357 2 -358 -85 0 c-61 0 -85 4 -86 13 -1 6 -2 73 -3 147 l-1 135 -137 3 -138 3 0 -151 0 -151 -87 3 -88 3 -3 358 -2 358 87 -3 88 -3 3 -147z m-2058 17 l0 -75 60 0 60 0 0 -55 0 -55 -60 0 -60 0 0 -133 c0 -144 6 -162 46 -147 26 10 48 -7 74 -55 16 -31 5 -46 -49 -64 -80 -26 -162 -6 -202 50 -22 32 -24 44 -27 190 l-4 155 -31 10 c-29 8 -32 14 -35 51 -3 41 -2 42 33 49 38 7 48 19 60 74 17 77 19 80 80 80 l55 0 0 -75z m535 -93 c83 -42 126 -113 133 -218 8 -123 -38 -208 -138 -260 -53 -27 -182 -26 -236 3 -59 31 -110 93 -128 154 -47 156 26 303 169 340 51 14 157 4 200 -19z m517 15 c10 -10 12 -31 8 -73 l-5 -59 -52 -5 c-36 -4 -60 -13 -77 -29 -26 -24 -26 -26 -26 -183 l0 -158 -80 0 -80 0 0 255 0 255 58 0 c61 0 82 -11 82 -44 0 -18 4 -17 33 11 17 17 39 33 47 36 29 10 79 7 92 -6z m-1632 -173 c0 -102 4 -183 10 -195 13 -24 70 -26 105 -3 l25 16 0 179 0 179 80 0 80 0 0 -255 0 -255 -59 0 c-48 0 -63 4 -74 20 -13 19 -14 19 -62 -5 -123 -63 -243 -1 -264 136 -5 30 -7 115 -5 189 2 74 4 143 4 153 0 15 11 17 80 17 l80 0 0 -176z m2100 51 c25 -66 49 -129 54 -140 7 -16 15 1 42 80 19 55 41 119 50 143 l16 42 79 0 c43 0 79 -3 79 -7 0 -4 -62 -152 -137 -330 l-138 -323 -77 0 c-43 0 -78 3 -78 6 0 4 20 50 45 102 l46 96 -40 90 c-22 50 -67 153 -100 229 l-60 138 86 -3 87 -3 46 -120z m1250 -51 c0 -102 4 -183 10 -195 13 -24 75 -26 108 -3 21 15 22 20 22 195 l0 180 83 -3 c45 -2 81 -6 80 -10 -2 -5 -3 -118 -3 -253 l0 -245 -55 0 c-41 0 -60 5 -74 19 -19 19 -20 19 -67 -5 -57 -29 -112 -31 -162 -5 -90 46 -102 84 -102 316 l0 185 80 0 80 0 0 -176z"/>
<path d="M8013 10078 c11 -10 27 -18 36 -17 10 0 7 4 -8 10 -14 5 -30 13 -36 17 -6 4 -2 -1 8 -10z"/>
<path d="M8045 10040 c-3 -5 -1 -10 4 -10 6 0 11 5 11 10 0 6 -2 10 -4 10 -3 0 -8 -4 -11 -10z"/>
<path d="M8160 10031 c0 -5 5 -13 10 -16 6 -3 10 -2 10 4 0 5 -4 13 -10 16 -5 3 -10 2 -10 -4z"/>
<path d="M8629 10011 c9 -6 10 -10 2 -16 -7 -4 -18 -2 -26 5 -10 8 -15 8 -21 -1 -4 -8 -3 -9 4 -5 8 5 12 -2 13 -21 1 -17 3 -21 6 -10 2 9 10 17 18 17 14 0 27 25 18 34 -4 3 -11 6 -17 6 -6 0 -5 -4 3 -9z"/>
<path d="M8090 9995 c0 -3 7 -14 16 -23 15 -14 16 -14 13 3 -4 17 -29 35 -29 20z"/>
<path d="M8393 9985 c-3 -9 -3 -19 1 -22 3 -4 6 1 6 11 0 9 5 14 10 11 6 -3 10 -1 10 4 0 17 -20 13 -27 -4z"/>
<path d="M8690 9993 c0 -5 5 -15 10 -23 8 -12 10 -11 10 8 0 12 -4 22 -10 22 -5 0 -10 -3 -10 -7z"/>
<path d="M8545 9960 c-3 -5 -1 -10 4 -10 6 0 11 5 11 10 0 6 -2 10 -4 10 -3 0 -8 -4 -11 -10z"/>
<path d="M8670 9948 c0 -19 2 -20 10 -8 13 19 13 30 0 30 -5 0 -10 -10 -10 -22z"/>
<path d="M8201 9944 c0 -11 3 -14 6 -6 3 7 2 16 -1 19 -3 4 -6 -2 -5 -13z"/>
<path d="M8180 9933 c0 -15 -2 -16 -10 -3 -5 8 -10 10 -10 4 0 -5 6 -18 13 -29 13 -16 14 -15 15 14 0 17 -1 31 -4 31 -2 0 -4 -8 -4 -17z"/>
<path d="M8130 9929 c0 -5 5 -7 10 -4 6 3 10 8 10 11 0 2 -4 4 -10 4 -5 0 -10 -5 -10 -11z"/>
<path d="M8610 9914 c0 -8 5 -12 10 -9 6 4 8 11 5 16 -9 14 -15 11 -15 -7z"/>
<path d="M8685 9920 c-3 -5 -1 -10 4 -10 6 0 11 5 11 10 0 6 -2 10 -4 10 -3 0 -8 -4 -11 -10z"/>
<path d="M8390 9789 c0 -5 5 -7 10 -4 6 3 10 8 10 11 0 2 -4 4 -10 4 -5 0 -10 -5 -10 -11z"/>
<path d="M8341 9734 c0 -11 3 -14 6 -6 3 7 2 16 -1 19 -3 4 -6 -2 -5 -13z"/>
<path d="M8381 9734 c0 -11 3 -14 6 -6 3 7 2 16 -1 19 -3 4 -6 -2 -5 -13z"/>
<path d="M8261 9714 c0 -11 3 -14 6 -6 3 7 2 16 -1 19 -3 4 -6 -2 -5 -13z"/>
<path d="M8046 9632 c-3 -6 -1 -14 5 -17 15 -10 25 3 12 16 -7 7 -13 7 -17 1z"/>
<path d="M7982 9574 c-7 -8 -10 -19 -7 -24 11 -17 20 -11 21 15 1 14 1 25 0 25 0 -1 -7 -7 -14 -16z"/>
<path d="M7775 9410 c-3 -5 -1 -10 4 -10 6 0 11 5 11 10 0 6 -2 10 -4 10 -3 0 -8 -4 -11 -10z"/>
<path d="M7780 9330 c0 -5 5 -10 10 -10 6 0 10 5 10 10 0 6 -4 10 -10 10 -5 0 -10 -4 -10 -10z"/>
<path d="M7642 9294 c-7 -8 -8 -14 -3 -14 10 0 25 19 20 25 -2 1 -10 -3 -17 -11z"/>
<path d="M7596 9262 c-3 -5 1 -9 9 -9 8 0 12 4 9 9 -3 4 -7 8 -9 8 -2 0 -6 -4 -9 -8z"/>
<path d="M10160 7233 c-8 -3 -25 -15 -37 -26 -21 -19 -23 -29 -23 -123 0 -114 6 -126 65 -126 69 0 101 59 93 174 -3 40 -11 76 -19 83 -17 17 -58 26 -79 18z"/>
<path d="M7155 7226 c-17 -7 -36 -25 -43 -40 -15 -34 -16 -147 0 -181 26 -57 109 -67 148 -18 37 47 38 180 2 222 -23 26 -70 34 -107 17z"/>
</g>
</svg>