<?xml version="1.0" standalone="no"?>
<!DOCTYPE svg PUBLIC "-//W3C//DTD SVG 20010904//EN"
 "http://www.w3.org/TR/2001/REC-SVG-20010904/DTD/svg10.dtd">
<svg version="1.0" xmlns="http://www.w3.org/2000/svg"
 width="200" height="53" viewBox="0 0 499.000000 368.000000"
 preserveAspectRatio="xMidYMid meet">

<g transform="translate(0.000000,368.000000) scale(0.100000,-0.100000)"
fill="#000000" stroke="none">
<path d="M0 1840 l0 -1840 2495 0 2495 0 0 213 -1 212 -19 -49 c-50 -128 -185
-184 -281 -116 -25 19 -33 20 -40 9 -5 -8 -9 -17 -9 -21 0 -5 -31 -8 -70 -8
l-70 0 0 365 0 365 80 0 80 0 0 -125 c0 -79 4 -125 10 -125 6 0 21 7 34 15 12
8 43 18 68 21 85 12 167 -47 202 -142 13 -34 15 154 15 1514 l1 1552 -1231 0
c-721 0 -1228 -4 -1225 -9 3 -5 50 -23 103 -41 54 -17 150 -49 213 -71 63 -22
131 -44 150 -50 19 -6 53 -19 75 -28 22 -10 75 -28 118 -41 59 -18 77 -28 77
-42 0 -10 -6 -18 -13 -18 -8 0 -14 -7 -14 -15 0 -9 6 -14 14 -11 14 6 83 -23
83 -34 0 -4 -12 -12 -27 -19 -21 -10 -28 -9 -34 1 -7 10 -12 11 -28 1 -14 -9
-22 -9 -27 -2 -3 6 -12 8 -20 5 -20 -8 -84 22 -84 40 0 11 -10 14 -40 12 -22
-1 -40 -6 -40 -10 0 -12 -96 -9 -127 4 -15 6 -38 21 -50 32 -22 19 -23 19 -44
0 -12 -10 -24 -18 -28 -17 -3 1 -8 -1 -10 -3 -2 -2 1 -4 7 -4 7 0 12 -4 12
-10 0 -5 -18 -13 -40 -16 -36 -6 -57 -24 -27 -24 32 0 87 22 87 35 0 8 7 15
15 15 8 0 15 -7 15 -15 0 -9 -7 -18 -15 -21 -22 -9 -19 -44 3 -44 10 0 24 -6
31 -12 11 -11 12 -9 6 10 -13 43 56 20 120 -40 22 -21 46 -38 54 -38 34 0 -10
-20 -51 -23 -9 -1 -19 -9 -21 -19 -5 -19 8 -25 18 -8 4 6 13 7 24 1 10 -6 23
-6 32 0 7 5 23 8 34 8 12 0 6 -5 -14 -11 -20 -5 -30 -12 -23 -17 7 -4 8 -12 2
-21 -8 -12 -10 -12 -10 4 0 16 -5 17 -36 11 -26 -4 -40 -2 -46 7 -6 9 -7 6 -3
-8 4 -17 0 -23 -20 -28 -14 -4 -25 -13 -25 -22 0 -10 -8 -14 -26 -12 -15 2
-29 -3 -31 -9 -3 -7 2 -13 11 -13 9 0 16 -4 16 -10 0 -5 -9 -10 -20 -10 -11 0
-20 6 -20 14 0 17 -33 31 -38 17 -2 -6 -10 -11 -18 -11 -7 0 -16 -11 -20 -25
-7 -28 -19 -32 -28 -9 -9 23 -72 15 -68 -8 2 -13 -4 -18 -22 -18 -13 0 -26 -3
-28 -7 -4 -11 -55 -40 -100 -59 -21 -9 -38 -22 -38 -29 0 -8 -8 -11 -19 -8
-16 4 -19 1 -14 -16 3 -12 1 -21 -6 -21 -6 0 -11 9 -11 20 0 23 -8 25 -34 5
-18 -13 -14 -41 5 -30 5 4 9 -4 8 -17 0 -13 -3 -17 -6 -11 -3 10 -8 9 -20 -2
-8 -8 -24 -14 -36 -14 -17 1 -18 2 -4 6 17 4 24 23 9 23 -16 0 -32 -24 -32
-47 0 -20 4 -22 26 -17 20 5 25 3 22 -7 -3 -8 -12 -12 -19 -10 -8 2 -24 3 -37
3 -13 0 -26 7 -29 14 -9 25 -23 15 -24 -18 -1 -40 -12 -80 -20 -76 -3 2 -13
-5 -23 -14 -20 -21 -14 -23 17 -6 20 10 21 10 8 -5 -14 -17 -8 -22 69 -50 10
-4 11 -6 2 -6 -7 -1 -59 15 -115 35 -56 20 -106 37 -112 38 -29 7 -402 135
-465 160 -8 3 -55 19 -105 36 -49 16 -128 44 -175 60 -47 17 -176 62 -288 100
-111 37 -202 72 -201 76 1 5 81 37 178 71 97 34 262 91 366 128 105 37 267 93
360 125 94 32 262 91 375 130 113 40 243 85 289 101 46 16 86 31 89 34 3 3
-560 5 -1251 5 l-1257 0 0 -1840z m3325 1555 c32 -11 35 -14 15 -15 -20 0 -22
-2 -10 -11 12 -7 8 -9 -15 -7 -23 2 -30 8 -31 26 -1 12 -1 22 0 22 0 0 19 -7
41 -15z m62 -41 c-3 -3 -12 -4 -19 -1 -8 3 -5 6 6 6 11 1 17 -2 13 -5z m0 -50
c-3 -3 -12 -4 -19 -1 -8 3 -5 6 6 6 11 1 17 -2 13 -5z m-132 -43 c-6 -5 -21
-12 -35 -16 -24 -7 -24 -7 -5 9 21 16 56 23 40 7z m-158 -127 c-3 -3 -12 -4
-19 -1 -8 3 -5 6 6 6 11 1 17 -2 13 -5z m813 -424 c0 -160 -4 -250 -10 -250
-6 0 -10 90 -10 250 0 160 4 250 10 250 6 0 10 -90 10 -250z m-1610 0 c0 -5
-4 -10 -10 -10 -5 0 -10 5 -10 10 0 6 5 10 10 10 6 0 10 -4 10 -10z m-773 -86
c258 -95 358 -132 447 -166 44 -16 118 -43 165 -60 47 -16 114 -41 149 -55
l62 -26 0 -524 c0 -287 -3 -523 -7 -523 -4 0 -46 16 -93 35 -47 18 -155 61
-240 94 -85 33 -231 90 -325 126 -93 37 -199 78 -235 91 -36 14 -75 29 -87 34
l-23 10 -1 407 c-1 225 -3 453 -4 508 -2 92 0 115 10 115 2 0 84 -29 182 -66z
m2197 39 c0 -13 -1 -245 -2 -517 l-2 -494 -37 -12 c-21 -7 -51 -18 -68 -26
-28 -12 -283 -112 -485 -189 -47 -18 -154 -60 -239 -94 -85 -34 -158 -58 -162
-54 -4 5 -8 244 -10 532 l-4 524 80 28 c44 16 105 38 135 48 156 55 744 272
749 276 3 3 14 5 26 3 13 -2 20 -10 19 -25z m-1334 -13 c-20 -13 -70 -13 -70
0 0 6 19 10 43 10 31 0 38 -3 27 -10z m-100 -20 c0 -5 -9 -10 -21 -10 -11 0
-17 5 -14 10 3 6 13 10 21 10 8 0 14 -4 14 -10z m147 -86 c-3 -3 -12 -4 -19
-1 -8 3 -5 6 6 6 11 1 17 -2 13 -5z m173 -1939 l0 -366 -77 3 -78 3 -3 363 -2
362 80 0 80 0 0 -365z m-1982 283 l3 -67 -98 -3 -98 -3 -3 -285 c-2 -212 -5
-286 -15 -292 -14 -9 -128 -11 -151 -2 -15 6 -16 38 -16 293 l1 286 -98 5 -98
5 -3 54 c-2 29 -1 60 2 67 5 12 55 14 288 12 l283 -3 3 -67z m2773 60 c1 -7 0
-75 -1 -150 l-2 -138 141 0 141 0 0 150 0 150 85 0 85 0 0 -360 0 -360 -85 0
-84 0 -3 148 -3 147 -115 3 c-174 4 -160 18 -160 -153 l0 -145 -85 0 -85 0 0
360 0 360 85 0 c61 0 85 -4 86 -12z m-2061 -123 l5 -70 60 -5 60 -5 0 -50 0
-50 -62 -3 -63 -3 0 -133 c0 -105 3 -136 15 -146 8 -6 19 -9 25 -5 23 14 57
-5 79 -45 l22 -40 -43 -20 c-89 -40 -193 -18 -233 50 -17 30 -20 56 -23 188
l-4 152 -24 0 c-28 0 -47 30 -42 67 2 21 11 29 43 37 38 11 40 14 53 71 15 70
33 87 87 83 l40 -3 5 -70z m496 -80 c62 -18 122 -69 152 -127 34 -69 32 -186
-5 -259 -49 -95 -156 -144 -274 -125 -131 21 -215 132 -212 276 5 177 164 287
339 235z m566 -3 c5 -5 6 -36 2 -70 l-6 -60 -56 -4 c-45 -4 -60 -10 -79 -32
-22 -26 -23 -34 -23 -182 l0 -154 -74 0 c-58 0 -75 3 -80 16 -3 9 -6 123 -6
255 l0 239 60 0 c57 0 61 -2 79 -31 19 -31 19 -31 31 -9 22 42 121 63 152 32z
m-1642 -172 c0 -167 1 -181 20 -200 25 -25 46 -25 88 0 l32 20 0 180 0 181 83
-3 82 -3 3 -252 2 -253 -64 0 c-54 0 -67 3 -75 19 -10 18 -12 18 -57 -5 -81
-41 -167 -30 -221 28 -46 49 -53 85 -53 283 l0 185 80 0 80 0 0 -180z m2048
171 c7 -4 34 -64 60 -133 26 -69 51 -126 56 -127 5 -1 27 53 48 121 22 68 45
129 50 136 7 7 37 12 85 12 74 0 75 0 69 -24 -12 -50 -265 -629 -277 -637 -16
-10 -132 -12 -141 -3 -4 3 14 49 39 102 28 61 42 104 39 118 -6 21 -94 225
-157 363 -16 35 -29 67 -29 72 0 11 140 12 158 0z m1302 -169 c0 -225 11 -247
105 -208 l35 15 0 186 0 186 83 -3 82 -3 3 -252 2 -253 -58 0 c-45 0 -63 5
-76 19 -16 18 -18 17 -63 -5 -65 -34 -127 -32 -184 5 -76 47 -83 74 -87 299
l-4 192 81 0 81 0 0 -178z"/>
<path d="M1735 630 c-46 -8 -75 -60 -75 -134 0 -114 57 -170 135 -133 44 21
59 67 53 159 -7 95 -36 122 -113 108z"/>
<path d="M2670 3370 c0 -5 5 -10 11 -10 5 0 7 5 4 10 -3 6 -8 10 -11 10 -2 0
-4 -4 -4 -10z"/>
<path d="M3008 3193 c7 -3 16 -2 19 1 4 3 -2 6 -13 5 -11 0 -14 -3 -6 -6z"/>
<path d="M2540 2955 c0 -8 5 -15 10 -15 6 0 10 7 10 15 0 8 -4 15 -10 15 -5 0
-10 -7 -10 -15z"/>
<path d="M4719 628 c-53 -20 -59 -34 -59 -144 0 -95 2 -104 22 -118 12 -9 31
-16 41 -16 30 0 72 27 85 55 15 33 16 166 1 199 -13 27 -53 38 -90 24z"/>
</g>
</svg>
